<svg width="167" height="234" viewBox="0 0 92 130" fill="none" xmlns="http://www.w3.org/2000/svg">
<path d="M92 0H0V130H92V0Z" fill="white"/>
<path d="M46.1897 42.5595C48.0531 42.5595 49.8789 43.0826 51.4605 44.0688C53.0418 45.055 54.3152 46.4649 55.1363 48.1391C55.957 49.8128 56.2928 51.6835 56.105 53.5387C55.9168 55.3939 55.213 57.1594 54.0733 58.6342C55.732 57.7765 57.5981 57.4016 59.4592 57.5536C61.3202 57.7053 63.1012 58.3769 64.5993 59.4924C66.0973 60.6075 67.2523 62.1218 67.9324 63.8621C68.612 65.602 68.7899 67.4986 68.4453 69.3349C68.1006 71.1715 67.2473 72.8739 65.9827 74.2486C64.7181 75.6236 63.0932 76.6152 61.293 77.1105C59.4925 77.6061 57.5893 77.5856 55.7999 77.0513C54.0108 76.5166 52.4074 75.4901 51.173 74.0884V77.4668L53.0632 85.0331C53.3684 86.255 52.453 87.4405 51.2045 87.4405H41.1745C39.926 87.4405 39.011 86.255 39.3161 85.0331L41.2064 77.4668L41.2087 74.0884C39.9739 75.4898 38.3708 76.5158 36.5816 77.0497C34.7924 77.5841 32.8893 77.6042 31.0891 77.1086C29.289 76.6129 27.6641 75.6213 26.3998 74.2466C25.1354 72.8716 24.2823 71.1692 23.9378 69.3329C23.5932 67.4967 23.7711 65.6005 24.4509 63.8605C25.1308 62.1203 26.2855 60.6063 27.7834 59.4908C29.2812 58.3758 31.0621 57.7037 32.9229 57.5517C34.7838 57.4 36.6499 57.7742 38.3085 58.6319C37.1695 57.157 36.4663 55.392 36.2786 53.5375C36.091 51.6831 36.4265 49.8128 37.2471 48.1394C38.0677 46.4661 39.3403 45.0562 40.9212 44.07C42.5016 43.0838 44.3267 42.5603 46.1897 42.5595Z" fill="#262525"/>
</svg>
