<svg width="167" height="234" viewBox="0 0 92 130" fill="none" xmlns="http://www.w3.org/2000/svg">
<path d="M92 0H0V130H92V0Z" fill="white"/>
<path d="M67.4665 67.494C67.4665 70.58 66.2487 73.5394 64.0809 75.7216C61.9132 77.9037 58.973 79.1294 55.9075 79.1294C54.0445 79.1329 52.2087 78.6764 50.5615 77.7996L53.0179 85.2588C53.1038 85.5079 53.128 85.7745 53.0885 86.0353C53.049 86.2961 52.9466 86.5429 52.7906 86.7549C52.6404 86.9662 52.4422 87.1387 52.2126 87.2579C51.9826 87.3771 51.728 87.4397 51.4697 87.4405H40.5301C40.2717 87.4397 40.0172 87.3771 39.7872 87.2579C39.5576 87.1387 39.3594 86.9662 39.2091 86.7549C39.0531 86.5429 38.9508 86.2961 38.9113 86.0353C38.8718 85.7745 38.8959 85.5079 38.9818 85.2588L41.4382 77.7996C39.791 78.6764 37.9554 79.1329 36.0922 79.1294C33.0265 79.1294 30.0865 77.9037 27.9188 75.7216C25.751 73.5394 24.5332 70.58 24.5332 67.494C24.5332 56.357 44.6996 43.2463 45.5456 42.6853C45.6832 42.6029 45.84 42.5596 45.9999 42.5596C46.1597 42.5596 46.3165 42.6029 46.4541 42.6853C47.3001 43.2463 67.4665 56.357 67.4665 67.494Z" fill="#262525"/>
</svg>
