<svg width="32" height="24" viewBox="0 0 32 24" fill="none" xmlns="http://www.w3.org/2000/svg">
    <g clip-path="url(#clip0_17_777)">
        <rect width="32" height="24" rx="2" fill="white" />
        <path fill-rule="evenodd" clip-rule="evenodd" d="M0 0H32V24H0V0Z" fill="#F7FCFF" />
        <path fill-rule="evenodd" clip-rule="evenodd" d="M0 14.6667V16.6667H32V14.6667H0Z" fill="#E31D1C" />
        <path fill-rule="evenodd" clip-rule="evenodd" d="M0 18.3333V20.3333H32V18.3333H0Z" fill="#E31D1C" />
        <path fill-rule="evenodd" clip-rule="evenodd" d="M0 7.33331V9.33331H32V7.33331H0Z" fill="#E31D1C" />
        <path fill-rule="evenodd" clip-rule="evenodd" d="M0 22V24H32V22H0Z" fill="#E31D1C" />
        <path fill-rule="evenodd" clip-rule="evenodd" d="M0 11V13H32V11H0Z" fill="#E31D1C" />
        <path fill-rule="evenodd" clip-rule="evenodd" d="M0 0V2H32V0H0Z" fill="#E31D1C" />
        <path fill-rule="evenodd" clip-rule="evenodd" d="M0 3.66669V5.66669H32V3.66669H0Z" fill="#E31D1C" />
        <rect width="20" height="13" fill="#2E42A5" />
        <path fill-rule="evenodd" clip-rule="evenodd"
            d="M1.72197 2.93864L0.996087 3.44753L1.24115 2.54192L0.596436 1.96801H1.43852L1.72095 1.22894L2.05212 1.96801H2.76998L2.20594 2.54192L2.4243 3.44753L1.72197 2.93864ZM5.72197 2.93864L4.99609 3.44753L5.24115 2.54192L4.59644 1.96801H5.43852L5.72095 1.22894L6.05212 1.96801H6.76998L6.20594 2.54192L6.4243 3.44753L5.72197 2.93864ZM8.99609 3.44753L9.72197 2.93864L10.4243 3.44753L10.2059 2.54192L10.77 1.96801H10.0521L9.72095 1.22894L9.43852 1.96801H8.59644L9.24115 2.54192L8.99609 3.44753ZM13.722 2.93864L12.9961 3.44753L13.2412 2.54192L12.5964 1.96801H13.4385L13.721 1.22894L14.0521 1.96801H14.77L14.2059 2.54192L14.4243 3.44753L13.722 2.93864ZM0.996087 7.44753L1.72197 6.93864L2.4243 7.44753L2.20594 6.54192L2.76998 5.96801H2.05212L1.72095 5.22894L1.43852 5.96801H0.596436L1.24115 6.54192L0.996087 7.44753ZM5.72197 6.93864L4.99609 7.44753L5.24115 6.54192L4.59644 5.96801H5.43852L5.72095 5.22894L6.05212 5.96801H6.76998L6.20594 6.54192L6.4243 7.44753L5.72197 6.93864ZM8.99609 7.44753L9.72197 6.93864L10.4243 7.44753L10.2059 6.54192L10.77 5.96801H10.0521L9.72095 5.22894L9.43852 5.96801H8.59644L9.24115 6.54192L8.99609 7.44753ZM13.722 6.93864L12.9961 7.44753L13.2412 6.54192L12.5964 5.96801H13.4385L13.721 5.22894L14.0521 5.96801H14.77L14.2059 6.54192L14.4243 7.44753L13.722 6.93864ZM0.996087 11.4475L1.72197 10.9386L2.4243 11.4475L2.20594 10.5419L2.76998 9.96801H2.05212L1.72095 9.22894L1.43852 9.96801H0.596436L1.24115 10.5419L0.996087 11.4475ZM5.72197 10.9386L4.99609 11.4475L5.24115 10.5419L4.59644 9.96801H5.43852L5.72095 9.22894L6.05212 9.96801H6.76998L6.20594 10.5419L6.4243 11.4475L5.72197 10.9386ZM8.99609 11.4475L9.72197 10.9386L10.4243 11.4475L10.2059 10.5419L10.77 9.96801H10.0521L9.72095 9.22894L9.43852 9.96801H8.59644L9.24115 10.5419L8.99609 11.4475ZM13.722 10.9386L12.9961 11.4475L13.2412 10.5419L12.5964 9.96801H13.4385L13.721 9.22894L14.0521 9.96801H14.77L14.2059 10.5419L14.4243 11.4475L13.722 10.9386ZM16.9961 3.44753L17.722 2.93864L18.4243 3.44753L18.2059 2.54192L18.77 1.96801H18.0521L17.721 1.22894L17.4385 1.96801H16.5964L17.2412 2.54192L16.9961 3.44753ZM17.722 6.93864L16.9961 7.44753L17.2412 6.54192L16.5964 5.96801H17.4385L17.721 5.22894L18.0521 5.96801H18.77L18.2059 6.54192L18.4243 7.44753L17.722 6.93864ZM16.9961 11.4475L17.722 10.9386L18.4243 11.4475L18.2059 10.5419L18.77 9.96801H18.0521L17.721 9.22894L17.4385 9.96801H16.5964L17.2412 10.5419L16.9961 11.4475ZM3.72197 4.93864L2.99609 5.44753L3.24115 4.54192L2.59644 3.96801H3.43852L3.72095 3.22894L4.05212 3.96801H4.76998L4.20594 4.54192L4.4243 5.44753L3.72197 4.93864ZM6.99609 5.44753L7.72197 4.93864L8.4243 5.44753L8.20594 4.54192L8.76998 3.96801H8.05212L7.72095 3.22894L7.43852 3.96801H6.59644L7.24115 4.54192L6.99609 5.44753ZM11.722 4.93864L10.9961 5.44753L11.2412 4.54192L10.5964 3.96801H11.4385L11.721 3.22894L12.0521 3.96801H12.77L12.2059 4.54192L12.4243 5.44753L11.722 4.93864ZM2.99609 9.44753L3.72197 8.93864L4.4243 9.44753L4.20594 8.54192L4.76998 7.96801H4.05212L3.72095 7.22894L3.43852 7.96801H2.59644L3.24115 8.54192L2.99609 9.44753ZM7.72197 8.93864L6.99609 9.44753L7.24115 8.54192L6.59644 7.96801H7.43852L7.72095 7.22894L8.05212 7.96801H8.76998L8.20594 8.54192L8.4243 9.44753L7.72197 8.93864ZM10.9961 9.44753L11.722 8.93864L12.4243 9.44753L12.2059 8.54192L12.77 7.96801H12.0521L11.721 7.22894L11.4385 7.96801H10.5964L11.2412 8.54192L10.9961 9.44753ZM15.722 4.93864L14.9961 5.44753L15.2412 4.54192L14.5964 3.96801H15.4385L15.721 3.22894L16.0521 3.96801H16.77L16.2059 4.54192L16.4243 5.44753L15.722 4.93864ZM14.9961 9.44753L15.722 8.93864L16.4243 9.44753L16.2059 8.54192L16.77 7.96801H16.0521L15.721 7.22894L15.4385 7.96801H14.5964L15.2412 8.54192L14.9961 9.44753Z"
            fill="#F7FCFF" />
    </g>
    <defs>
        <clipPath id="clip0_17_777">
            <rect width="32" height="24" rx="2" fill="white" />
        </clipPath>
    </defs>
</svg>